<svg version="1.1" id="圖層_1" xmlns="http://www.w3.org/2000/svg" x="0" y="0" viewBox="0 0 3000 1383.7" style="enable-background:new 0 0 3000 1383.7" xml:space="preserve"><style>.st0{fill:#003465}</style><path class="st0" d="M3000 1026.4v-43.2h-124.5c-23.8 0-43.1 19.2-43.2 43v298.3c0 11.9-3.3 16-14.9 16h-17.8v43.2h29.4c46.6 0 46.6-38.3 46.6-52.7v-204.2h60.8v256.3h43.3v-256.3h20.4v-43.2h-124.5V1046c0-12.3 6.5-19.5 17.3-19.5l107.1-.1zM2695 1026.4h107.2v-43.2h-124.5c-23.8 0-43.1 19.2-43.2 43v298.3c0 11.9-3.3 16-14.8 16h-17.9v43.2h29.4c46.6 0 46.6-38.3 46.6-52.7v-94.7h118.8v-152.7h-118.8V1046c0-12.4 6.4-19.6 17.2-19.6m58.6 166.6h-75.8v-66.3h75.8v66.3zM1560.7 1017.2l-24.4-47.3h-43.1l24.4 47.3h-179.8v43h403.6v-43zM1691 1185.3h50.4v-42.1h-33.3c-10.7 0-20.6-5.1-46.1-30.6l-27.3-27.9h-59.3l51.9 52.3-87.8 76.7-87.8-76.7 51.9-52.3h-59.3l-27.3 27.9c-25.5 25.5-35.4 30.5-46.1 30.5h-33.3v42.1h50.4c8.2 0 16-3.1 30.6-15.9l86.1 74.8-89.9 78.6c-14 12-25.5 17.7-53.2 17.7h-24v43.2h38.3c29.1 0 36.6-.9 58.6-18.2l104.9-91.2 104.9 91.2c22 17.3 29.5 18.2 58.6 18.2h38.3v-43.2h-24c-27.7 0-39.2-5.7-53.2-17.7l-89.9-78.6 86.1-74.8c14.8 12.9 22.6 16 30.8 16M2146.1 146V.4h-518.6v733.9h518.6V588.5h-372.9V439h354.4V293.3h-354.4V146zM501.2.4v294.1H145.7V.4H0v733.9h145.7V440.2h355.5v294.1h145.7V.4zM1498.8 734.2l-271.8-408c12-10.4 28.9-25.1 38.8-33.9C1394.3 176.9 1407 42.4 1407.8.7H1267c-.4 19.8-5.2 109-93.8 188.6-41.7 37.5-109.9 94.6-164.7 140.1V3H863.4v731.3h145.2V506.8l.9 1.1c3.8-3.1 53.8-43.8 111.7-92.1l209.2 318.4h168.4z"/><path d="M2348.6 0v145.6c122 .3 220.8 99.2 220.8 221.3 0 122-98.8 220.9-220.8 221.2v145.4c202.6 0 366.8-164.2 366.8-366.7C2715.3 164.2 2551.1 0 2348.6 0" style="fill:#e72742"/><path class="st0" d="M3000 0v145.6c-122 .3-220.8 99.2-220.8 221.3 0 122 98.8 220.9 220.8 221.2v145.4c-202.6 0-366.8-164.2-366.8-366.7C2633.3 164.2 2797.4 0 3000 0M2370.8 1174v-138.1c0-14.4-1.5-52.7-48-52.7h-308.5V1174h64.1c-1.4 2.4-21.5 36.1-22.9 38.3-11.9 17.7-14.8 22-36.4 22h-37.4v43h37.4c32.5 0 48.5-10.5 61.7-26.7h25.7c-6.5 12.3-37.7 66-39.2 68.1-11.9 17.7-14.7 22-36.4 22h-37.4v43h37.4c41.3 0 55.9-17 72.1-41 2.5-3.7 51.2-90.4 52.1-92.1h80.4c-6.5 12.3-37.7 65.9-39.1 68.1-12 17.7-14.8 22-36.4 22h-37.4v43h37.4c41.3 0 55.9-17 72.1-41 2.5-3.7 51.2-90.3 52.1-92.1h43.6v68.7c0 14.2-6.4 21.4-21.7 21.4h-32.2v43.1h50.7c46.6 0 46.6-38.3 46.6-52.7v-123.5h-262.3c4.7-8.1 14.5-25 19.2-33.4l242.7-.2zm-313.5-147.5H2307c15.3 0 20.8 7.4 20.8 18.1v16.1h-270.5v-34.2zm0 71.3h270.5v34.1h-270.5v-34.1zM745.2 1331v-118.7H702v116.2c0 9.5-6.1 12-14.8 12h-17.9v43.2h29.4c46.6 0 46.6-38.3 46.5-52.7zM673.3 1090l24.5 65.5 4.4 11.8h43.1l-28.9-77.3zM673.3 988.3l24.5 65.5 4.4 11.8h43.1l-28.9-77.3zM970.8 1302.4c12.2 0 41.5-.1 50.2-28.4 0-.2.1-.3.2-.5.4-1.3.7-2.6 1-3.9.3-1.5.6-3 .8-4.6 0-.4.1-.8.2-1.1.3-2.7.6-5.6.6-8.7v-47.6c8.2 3.3 16.6 4.8 25.8 4.8h29.1v-45s-30.8 0-31.7-.1c-6.3-.3-14.3-3.1-34.6-24.8l-5.5-6.2h55.6v-43.2h-53.8v-32.8h53.8v-43h-53.8V970h-43.2v47.3h-94.8V970h-41.3v47.3h-53.9v43h53.9v32.8h-53.9v43.2h55.6l-5.5 6.2c-23.3 24.8-30.4 24.9-37.2 24.9h-29v45h29c7.2 0 13.8-.9 20.2-2.9V1331c0 14.4 0 52.7 46.6 52.7h154.7c14.4 0 52.7 0 52.7-46.6v-31.6h-43.2v19.1c0 10.8-5.6 15.8-16 15.8H860.2c-2.4 0-8.6 0-8.6-7.6v-30.4h119.2zm9.5-59.1c0 10.8-5.6 15.9-16 15.9H851.6v-33.6h128.7v17.7zm-109.7-183.1h94.8v32.8h-94.8v-32.8zm21.9 76 52.8-.1c4.1 4.4 39.6 42.7 43.7 46.7H848.7c4.1-4 39.7-42.2 43.8-46.6M365.6 1140.6c-10 0-18.3-1.5-42.7-21.1-4-3.2-8.8-7-14-11.3H403v-43.1H223V1034l132.3-20.6v-43.3l-149.9 23.3c-.4 0-38.4 5.8-74.3 5.8H46.9v42.8H131c17.3 0 34.6-1.2 48.9-2.5v25.7H0v43.1h94.1c-5.2 4.2-10 8.1-14 11.3-24.4 19.7-32.7 21.1-42.7 21.1H0v45h37.4c24.2 0 42.1-7.8 70.9-31.1 14.5-11.7 40.5-32.7 57.3-46.3H180v90.2H46.9v133c0 14.4 0 52.3 46.6 52.3h262.1v-185.3H223v-90.2h14.3c16.8 13.6 42.8 34.6 57.3 46.3 28.8 23.3 46.7 31.1 71 31.1H403v-45l-37.4-.1zm-52.5 199.9H104.8c-10.5 0-14.6-6.3-14.6-18.2V1310h222.9v30.5zm0-67.7H90.2v-30.9h222.9v30.9z"/></svg>